<?xml version="1.0" encoding="utf-8"?>
<!-- Generator: Adobe Illustrator 24.0.1, SVG Export Plug-In . SVG Version: 6.00 Build 0)  -->
<svg version="1.1" id="Camada_1" xmlns="http://www.w3.org/2000/svg" xmlns:xlink="http://www.w3.org/1999/xlink" x="0px" y="0px"
	 viewBox="0 0 512 512" style="enable-background:new 0 0 512 512;" xml:space="preserve">
<style type="text/css">
	.st0{fill:#0EAFB2;}
	.st1{fill:#4DB375;}
</style>
<g>
	<g>
		<path class="st0" d="M304.2,333.8l0,8.4c0,25.7-19.4,48.4-45.1,50c-24,1.5-44.5-14.6-49.9-36.6c-1.6-6.6-7.2-11.4-14-11.4h-1
			c-9.2,0-16,8.5-14,17.5c8.6,37.3,44.1,64.4,84.9,59.8c39.6-4.5,68.7-39.5,68.7-79.4v-8.3H304.2z"/>
		<path class="st1" d="M317.9,167.8h-1.1c-6.8,0-12.4-4.8-14-11.4c-5.4-22-26-38.2-50.1-36.6c-25.6,1.7-44.9,24.1-44.9,49.7v8.7
			h-29.6l0-8.2c0-41.8,32.1-77.9,73.9-79.9c38.6-1.9,71.5,24.5,79.7,60.2C333.9,159.3,327,167.8,317.9,167.8z"/>
		<path class="st1" d="M207.8,207.8v81.6c0,8.2-6.6,14.8-14.8,14.8h0c-8.2,0-14.8-6.6-14.8-14.8v-81.6H207.8z"/>
		<path class="st0" d="M333.8,222.6v81.6h-29.6v-81.6c0-8.2,6.6-14.8,14.8-14.8h0C327.2,207.8,333.8,214.4,333.8,222.6z"/>
	</g>
	<g>
		<path class="st1" d="M421.9,259.9c-2,41.8-38.1,73.9-79.9,73.9H222.6c-8.2,0-14.8-6.6-14.8-14.8c0-8.2,6.6-14.8,14.8-14.8h119.9
			c25.6,0,48-19.3,49.7-44.9c1.6-24.1-14.6-44.7-36.6-50.1c-6.6-1.6-11.5-7.2-11.5-14v-1c0-9.2,8.5-16,17.5-14
			C397.3,188.4,423.8,221.2,421.9,259.9z"/>
		<path class="st0" d="M304.2,193c0,8.2-6.6,14.8-14.8,14.8H169.5c-25.6,0-48.1,19.3-49.8,44.9c-1.6,24,14.5,44.7,36.6,50.1
			c6.6,1.6,11.5,7.2,11.5,14v1c0,9.2-8.7,16-17.7,13.9c-34.4-8-60.2-38.9-60.2-75.7c0-42.9,34.9-77.8,77.8-77.8h121.6
			C297.6,178.2,304.2,184.8,304.2,193z"/>
	</g>
</g>
</svg>
